#!OML:ASF I:\Actors\actors\Patient Classification 1\Patient 1\Session 1\Subject1.ASF
:FULLY-SPECIFIED
:DEGREES
895
root 0.848228 17.5437 8.71969 7.10526 0.686138 -8.44396
lowerback -2.09745 0.707002 6.58384
upperback -7.4245 1.15459 1.62152
thorax -6.50056 0.240952 -2.02128
lowerneck -7.66852 -4.68352 -3.50609
upperneck 31.892 -8.34764 6.80432
head 12.2034 -3.38193 2.12041
rclavicle 7.8023e-015 1.03368e-014
rhumerus 33.977 63.6751 -74.6945
rradius 144.299
rwrist -10.7173
rhand -26.7205 -85.2498
rfingers 7.12502
rthumb -0.150174 115.229
lclavicle 7.8023e-015 1.03368e-014
lhumerus 6.75762 -71.8085 98.1382
lradius 142.122
lwrist 12.6471
lhand -60.3203 -4.95021
lfingers 7.12502
lthumb -32.4567 22.1631
rfemur -1.88402 23.703 26.1019
rtibia 4.23473
rfoot -13.258 -22.977
rtoes 1.35133
lfemur 6.35309 -41.7599 -12.3174
ltibia -3.75836
lfoot -17.1332 47.9416
ltoes 2.5145
896
root 0.849749 17.5421 8.72444 7.00544 0.708224 -8.43499
lowerback -2.21048 0.766081 6.61296
upperback -7.52311 1.2261 1.55001
thorax -6.53467 0.269481 -2.1131
lowerneck -7.44724 -4.67722 -2.95239
upperneck 31.543 -8.33152 6.53184
head 11.9735 -3.35517 1.92472
rclavicle 1.2424e-015 -2.46493e-014
rhumerus 33.862 63.4899 -74.8829
rradius 144.265
rwrist -10.0628
rhand -26.5003 -85.5171
rfingers 7.12502
rthumb 0.0625743 115.497
lclavicle 1.2424e-015 -2.46493e-014
lhumerus 6.96111 -72.0137 98.0083
lradius 142.214
lwrist 12.8458
lhand -60.1677 -5.68242
lfingers 7.12502
lthumb -32.3115 21.4606
rfemur -1.71727 23.6774 26.1453
rtibia 4.19372
rfoot -13.3065 -22.9662
rtoes 1.47089
lfemur 6.5023 -41.6409 -12.4038
ltibia -3.8096
lfoot -17.0018 47.8306
ltoes 2.30285
897
root 0.851039 17.54 8.72874 6.88856 0.721132 -8.39625
lowerback -2.32869 0.725578 6.55034
upperback -7.60962 1.16704 1.58742
thorax -6.56627 0.242677 -2.03566
lowerneck -7.5462 -4.62006 -2.86834
upperneck 31.7924 -8.26999 6.47216
head 12.0848 -3.31648 1.89612
rclavicle 6.70898e-015 -9.54166e-015
rhumerus 34.0186 63.7652 -74.7354
rradius 144.262
rwrist -9.69032
rhand -26.8505 -85.8502
rfingers 7.12502
rthumb -0.275698 115.83
lclavicle 6.70898e-015 -9.54166e-015
lhumerus 7.05762 -71.9283 97.9143
lradius 142.276
lwrist 12.8997
lhand -60.0777 -6.50363
lfingers 7.12502
lthumb -32.2258 20.6568
rfemur -1.52173 23.6823 26.1666
rtibia 4.13746
rfoot -13.3457 -22.9917
rtoes 1.61699
lfemur 6.66737 -41.5383 -12.5531
ltibia -3.82182
lfoot -16.924 47.6869
ltoes 2.24047
898
root 0.851995 17.5372 8.73221 6.77002 0.722531 -8.31849
lowerback -2.41578 0.50709 6.35396
upperback -7.72739 0.883228 1.84611
thorax -6.67113 0.117624 -1.64542
lowerneck -7.32467 -4.35656 -2.86037
upperneck 31.8687 -7.76981 6.07596
head 12.0167 -3.14301 1.81641
rclavicle 7.8023e-015 -2.18663e-014
rhumerus 34.401 64.6589 -74.3296
rradius 144.238
rwrist -9.17245
rhand -27.0518 -85.8808
rfingers 7.12502
rthumb -0.470121 115.86
lclavicle 7.8023e-015 -2.18663e-014
lhumerus 6.95443 -71.3443 98.023
lradius 142.314
lwrist 12.8201
lhand -60.0431 -6.88399
lfingers 7.12502
lthumb -32.1929 20.2831
rfemur -1.34934 23.6426 26.1393
rtibia 4.1077
rfoot -13.3292 -23.0002
rtoes 1.46033
lfemur 6.85963 -41.4947 -12.7893
ltibia -3.81368
lfoot -16.8803 47.6211
ltoes 2.26818
899
root 0.85351 17.5345 8.73384 6.6491 0.717392 -8.28053
lowerback -2.43216 -0.955254 5.77924
upperback -7.861 -0.990542 3.587
thorax -6.90308 -0.721888 0.56808
lowerneck -7.4034 -2.92271 -6.1789
upperneck 32.3053 -5.04963 6.07969
head 12.137 -2.31881 2.75494
rclavicle 8.94531e-015 -1.98785e-015
rhumerus 37.3355 68.7556 -71.931
rradius 144.335
rwrist -9.26259
rhand -26.3449 -85.5182
rfingers 7.12502
rthumb 0.212647 115.498
lclavicle 8.94531e-015 -1.98785e-015
lhumerus 6.87105 -67.0892 97.9346
lradius 142.144
lwrist 11.8479
lhand -60.0002 -8.02626
lfingers 7.12502
lthumb -32.152 19.1491
rfemur -1.2179 23.5767 26.1467
rtibia 4.13613
rfoot -13.3289 -22.9565
rtoes 1.29858
lfemur 7.05132 -41.4223 -12.9668
ltibia -3.83054
lfoot -16.803 47.5855
ltoes 2.12897
900
root 0.854872 17.5323 8.73393 6.52598 0.708489 -8.36172
lowerback -2.45444 -1.43673 5.77042
upperback -7.9508 -1.60278 4.17194
thorax -6.99512 -1.00634 1.21473
lowerneck -7.42658 -2.40831 -7.14623
upperneck 32.4597 -4.09172 6.02026
head 12.1514 -2.01512 3.02838
rclavicle 2.11706e-014 -3.65764e-014
rhumerus 38.1425 70.0376 -71.2957
rradius 144.343
rwrist -8.85292
rhand -25.4781 -84.9604
rfingers 7.12502
rthumb 1.0498 114.938
lclavicle 2.11706e-014 -3.65764e-014
lhumerus 6.74591 -65.7045 97.9259
lradius 142.08
lwrist 11.4952
lhand -59.9722 -9.32051
lfingers 7.12502
lthumb -32.1254 17.8602
rfemur -1.10676 23.5579 26.2917
rtibia 4.20533
rfoot -13.3932 -22.9002
rtoes 1.43403
lfemur 7.17931 -41.2288 -12.926
ltibia -3.85803
lfoot -16.6156 47.4398
ltoes 1.83495
901
root 0.855388 17.5303 8.73454 6.40096 0.704154 -8.49562
lowerback -2.55418 -1.43731 5.90226
upperback -7.9568 -1.60635 4.23518
thorax -6.94849 -1.01338 1.20541
lowerneck -7.44994 -2.36185 -6.91538
upperneck 32.5506 -4.01218 5.82752
head 12.1771 -1.97418 2.92541
rclavicle -9.54166e-015 -4.37326e-015
rhumerus 38.4016 70.2036 -70.9395
rradius 144.361
rwrist -8.35467
rhand -25.4127 -84.7829
rfingers 7.12502
rthumb 1.11299 114.76
lclavicle -9.54166e-015 -4.37326e-015
lhumerus 6.78662 -65.8385 97.8498
lradius 142.101
lwrist 11.4332
lhand -59.8838 -10.4196
lfingers 7.12502
lthumb -32.0412 16.7781
rfemur -0.988306 23.5267 26.5023
rtibia 4.26237
rfoot -13.4189 -22.8545
rtoes 1.40379
lfemur 7.26725 -40.9208 -12.7732
ltibia -3.88847
lfoot -16.3209 47.1606
ltoes 1.45358
